# xmcd CD database file
#
# Track frame offsets:
#	150
#	23117
#	46097
#
# Disc length: 918 seconds
#
# Revision: 0
# Processed by: cddbd v1.5PL3 Copyright (c) Steve Scherf et al.
# Submitted via: CDex 1.51
#
DISCID=18039403
DTITLE=竹中直人 - 君に星が降る
DYEAR=1997
DGENRE=JPop
TTITLE0=君に星が降る
TTITLE1=君に星が降る（口笛バージョン）
TTITLE2=君に星が降る（オリジナル・カラオケ）
EXTD=YEAR: 1997
EXTT0=
EXTT1=
EXTT2=
PLAYORDER=
